<svg width="375" height="500" viewBox="0 0 375 500" fill="none" xmlns="http://www.w3.org/2000/svg">
<g filter="url(#filter0_f_24_251)">
<ellipse cx="191.26" cy="276.877" rx="203.408" ry="173.149" transform="rotate(172.21 191.26 276.877)" fill="#F2DE87"/>
</g>
<g filter="url(#filter1_f_24_251)">
<ellipse cx="191.26" cy="276.877" rx="203.408" ry="173.149" transform="rotate(172.21 191.26 276.877)" fill="url(#paint0_linear_24_251)"/>
</g>
<g filter="url(#filter2_f_24_251)">
<ellipse cx="191.26" cy="276.877" rx="203.408" ry="173.149" transform="rotate(172.21 191.26 276.877)" fill="url(#paint1_linear_24_251)"/>
</g>
<g filter="url(#filter3_f_24_251)">
<ellipse cx="191.261" cy="276.877" rx="203.408" ry="173.149" transform="rotate(172.21 191.261 276.877)" fill="url(#paint2_linear_24_251)"/>
</g>
<path d="M135.495 223.527C141.882 229.739 156.79 236.642 165.329 214.555" stroke="#333333" stroke-width="6.17098" stroke-linecap="round"/>
<path d="M176.517 211.19C182.904 217.403 197.812 224.305 206.351 202.218" stroke="#333333" stroke-width="6.17098" stroke-linecap="round"/>
<path d="M117.353 239.826C137.97 252.038 189.208 262.406 229.23 206.182" stroke="#333333" stroke-width="6.17098" stroke-linecap="round"/>
<path d="M180.117 80.4617C177.735 65.2116 164.514 53.5067 148.605 53.5067C142.62 53.5067 136.869 55.1626 131.881 58.2511C124.292 45.4974 110.63 37.561 95.4524 37.561C72.0062 37.561 52.9305 56.6367 52.9305 80.0829C52.9305 80.2282 52.9305 80.3788 52.9358 80.5241C37.8672 83.0623 26 96.1998 26 111.974C26 129.56 40.6598 143.866 58.2458 143.866H175.181C192.767 143.866 207.427 129.56 207.427 111.974C207.427 96.0651 195.368 82.8443 180.117 80.4617Z" fill="white"/>
<path d="M180.117 80.4617C177.735 65.2116 164.514 53.5067 148.605 53.5067C142.62 53.5067 136.869 55.1626 131.881 58.2511C124.292 45.4974 110.63 37.561 95.4524 37.561C72.0062 37.561 52.9305 56.6367 52.9305 80.0829C52.9305 80.2282 52.9305 80.3788 52.9358 80.5241C37.8672 83.0623 26 96.1998 26 111.974C26 129.56 40.6598 143.866 58.2458 143.866H175.181C192.767 143.866 207.427 129.56 207.427 111.974C207.427 96.0651 195.368 82.8443 180.117 80.4617Z" fill="white"/>
<rect x="14.8922" y="106.141" width="75.2859" height="75.2859" rx="14.1161" fill="#FF984C"/>
<g clip-path="url(#clip0_24_251)">
<path d="M72.239 124.845H73.7682C74.1738 124.845 74.5627 125.006 74.8495 125.293C75.1363 125.579 75.2974 125.968 75.2974 126.374V160.782C75.2974 161.188 75.1363 161.576 74.8495 161.863C74.5627 162.15 74.1738 162.311 73.7682 162.311H56.1819C56.1819 163.122 55.8596 163.9 55.2861 164.474C54.7125 165.047 53.9345 165.37 53.1234 165.37C52.3122 165.37 51.5343 165.047 50.9607 164.474C50.3871 163.9 50.0649 163.122 50.0649 162.311H32.4786C32.073 162.311 31.684 162.15 31.3972 161.863C31.1104 161.576 30.9493 161.188 30.9493 160.782V126.374C30.9493 125.968 31.1104 125.579 31.3972 125.293C31.684 125.006 32.073 124.845 32.4786 124.845H72.239Z" fill="#F4AB19"/>
<path d="M72.2389 123.943V158.106C72.2399 158.294 72.1939 158.48 72.1051 158.647C72.0163 158.813 71.8876 158.955 71.7304 159.06C71.5732 159.164 71.3925 159.228 71.2046 159.245C71.0167 159.262 70.8275 159.233 70.6539 159.159C68.1217 158.143 65.4087 157.654 62.6812 157.723C56.0672 157.723 53.1234 160.017 53.1234 160.017C53.1234 160.017 50.1796 157.723 43.5656 157.723C40.838 157.654 38.1251 158.143 35.5929 159.159C35.4193 159.233 35.23 159.262 35.0421 159.245C34.8542 159.228 34.6735 159.164 34.5164 159.06C34.3592 158.955 34.2304 158.813 34.1416 158.647C34.0529 158.48 34.0069 158.294 34.0078 158.106V123.943C34.008 123.738 34.063 123.537 34.1672 123.361C34.2714 123.184 34.421 123.039 34.6004 122.94C35.7588 122.29 38.6475 121.022 43.5656 121.022C50.1796 121.022 53.1234 123.315 53.1234 123.315C53.1234 123.315 56.0672 121.022 62.6812 121.022C67.5992 121.022 70.488 122.29 71.6464 122.94C71.8257 123.039 71.9753 123.184 72.0795 123.361C72.1837 123.537 72.2388 123.738 72.2389 123.943Z" fill="#DFE2F2"/>
<path d="M49.3005 127.048C49.2356 127.048 49.1708 127.04 49.1078 127.024C47.2952 126.575 45.4332 126.356 43.5659 126.374C41.6983 126.356 39.836 126.575 38.0231 127.024C37.8267 127.075 37.6182 127.045 37.4435 126.942C37.2688 126.839 37.1421 126.671 37.0914 126.474C37.0407 126.278 37.0701 126.07 37.1731 125.895C37.2762 125.72 37.4444 125.593 37.6408 125.543C39.5786 125.062 41.5693 124.827 43.5659 124.845C45.5629 124.827 47.5542 125.062 49.4925 125.543C49.6725 125.589 49.8294 125.7 49.9337 125.854C50.038 126.008 50.0826 126.195 50.059 126.38C50.0355 126.564 49.9455 126.734 49.8059 126.857C49.6662 126.98 49.4866 127.048 49.3005 127.048Z" fill="#9AA1B7"/>
<path d="M49.3003 131.635C49.2353 131.636 49.1705 131.628 49.1076 131.612C47.295 131.162 45.4329 130.944 43.5656 130.962C41.698 130.944 39.8357 131.162 38.0228 131.612C37.8264 131.662 37.6179 131.633 37.4432 131.53C37.2685 131.427 37.1418 131.259 37.0912 131.062C37.0405 130.866 37.0699 130.657 37.1729 130.483C37.2759 130.308 37.4441 130.181 37.6405 130.131C39.5783 129.649 41.5691 129.415 43.5656 129.432C45.5626 129.415 47.5539 129.649 49.4922 130.131C49.6723 130.177 49.8292 130.288 49.9335 130.442C50.0378 130.596 50.0823 130.783 50.0588 130.967C50.0352 131.152 49.9452 131.322 49.8056 131.445C49.666 131.567 49.4863 131.635 49.3003 131.635Z" fill="#9AA1B7"/>
<path d="M49.3003 136.223C49.2353 136.223 49.1705 136.215 49.1076 136.199C47.295 135.75 45.4329 135.532 43.5656 135.549C41.698 135.532 39.8357 135.75 38.0228 136.199C37.8264 136.25 37.6179 136.221 37.4432 136.118C37.2685 136.015 37.1418 135.846 37.0912 135.65C37.0405 135.454 37.0699 135.245 37.1729 135.07C37.2759 134.896 37.4441 134.769 37.6405 134.718C39.5783 134.237 41.5691 134.003 43.5656 134.02C45.5626 134.002 47.5539 134.237 49.4922 134.718C49.6723 134.765 49.8292 134.876 49.9335 135.03C50.0378 135.184 50.0823 135.371 50.0588 135.555C50.0352 135.74 49.9452 135.909 49.8056 136.032C49.666 136.155 49.4863 136.223 49.3003 136.223Z" fill="#9AA1B7"/>
<path d="M49.3003 140.811C49.2353 140.811 49.1705 140.803 49.1076 140.787C47.295 140.338 45.4329 140.12 43.5656 140.137C41.698 140.12 39.8357 140.338 38.0228 140.787C37.8264 140.838 37.6179 140.808 37.4432 140.705C37.2685 140.602 37.1418 140.434 37.0912 140.238C37.0405 140.041 37.0699 139.833 37.1729 139.658C37.2759 139.483 37.4441 139.357 37.6405 139.306C39.5783 138.825 41.5691 138.59 43.5656 138.608C45.5626 138.59 47.5539 138.825 49.4922 139.306C49.6723 139.353 49.8292 139.463 49.9335 139.617C50.0378 139.772 50.0823 139.958 50.0588 140.143C50.0352 140.327 49.9452 140.497 49.8056 140.62C49.666 140.743 49.4863 140.811 49.3003 140.811Z" fill="#9AA1B7"/>
<path d="M49.3003 145.398C49.2353 145.399 49.1705 145.39 49.1076 145.374C47.295 144.925 45.4329 144.707 43.5656 144.725C41.698 144.707 39.8357 144.925 38.0228 145.374C37.9248 145.402 37.8223 145.409 37.7213 145.397C37.6202 145.384 37.5227 145.352 37.4345 145.301C37.3462 145.25 37.2689 145.182 37.2072 145.101C37.1456 145.02 37.1007 144.928 37.0752 144.829C37.0497 144.731 37.0442 144.628 37.059 144.527C37.0737 144.426 37.1085 144.33 37.1611 144.243C37.2138 144.155 37.2833 144.08 37.3656 144.02C37.448 143.96 37.5414 143.917 37.6405 143.894C39.5783 143.412 41.5691 143.178 43.5656 143.196C45.5626 143.178 47.5539 143.412 49.4922 143.894C49.6723 143.94 49.8292 144.051 49.9335 144.205C50.0378 144.359 50.0823 144.546 50.0588 144.731C50.0352 144.915 49.9452 145.085 49.8056 145.208C49.666 145.331 49.4863 145.398 49.3003 145.398Z" fill="#9AA1B7"/>
<path d="M49.3003 149.986C49.2353 149.986 49.1705 149.978 49.1076 149.962C47.295 149.513 45.4329 149.295 43.5656 149.313C41.698 149.295 39.8357 149.513 38.0228 149.962C37.9248 149.989 37.8223 149.997 37.7213 149.985C37.6202 149.972 37.5227 149.939 37.4345 149.889C37.3462 149.838 37.2689 149.77 37.2072 149.689C37.1456 149.608 37.1007 149.516 37.0752 149.417C37.0497 149.318 37.0442 149.216 37.059 149.115C37.0737 149.014 37.1085 148.917 37.1611 148.83C37.2138 148.743 37.2833 148.667 37.3656 148.608C37.448 148.548 37.5414 148.505 37.6405 148.481C39.5783 148 41.5691 147.766 43.5656 147.783C45.5626 147.766 47.5539 148 49.4922 148.481C49.6723 148.528 49.8292 148.639 49.9335 148.793C50.0378 148.947 50.0823 149.134 50.0588 149.318C50.0352 149.503 49.9452 149.673 49.8056 149.795C49.666 149.918 49.4863 149.986 49.3003 149.986Z" fill="#9AA1B7"/>
<path d="M37.8309 154.574C37.6449 154.574 37.4654 154.506 37.3259 154.383C37.1864 154.26 37.0966 154.09 37.0731 153.906C37.0497 153.721 37.0943 153.534 37.1986 153.381C37.3029 153.227 37.4597 153.116 37.6398 153.069C39.5778 152.588 41.5688 152.353 43.5656 152.371C43.9724 152.371 44.3646 152.379 44.7446 152.396C44.9474 152.404 45.1385 152.493 45.2759 152.642C45.4133 152.792 45.4857 152.99 45.4771 153.192C45.4686 153.395 45.3799 153.586 45.2305 153.724C45.0811 153.861 44.8832 153.933 44.6804 153.925C44.321 153.909 43.9479 153.9 43.5656 153.9C41.698 153.882 39.8357 154.1 38.0228 154.549C37.9602 154.566 37.8957 154.574 37.8309 154.574Z" fill="#9AA1B7"/>
<path d="M68.4158 127.048C68.3509 127.048 68.2861 127.04 68.2231 127.024C66.4105 126.575 64.5485 126.356 62.6812 126.374C60.8136 126.356 58.9513 126.575 57.1384 127.024C56.942 127.075 56.7335 127.045 56.5588 126.942C56.3841 126.839 56.2574 126.671 56.2067 126.474C56.156 126.278 56.1854 126.07 56.2884 125.895C56.3915 125.72 56.5597 125.593 56.7561 125.543C58.6939 125.062 60.6846 124.827 62.6812 124.845C64.6782 124.827 66.6695 125.062 68.6077 125.543C68.7878 125.589 68.9447 125.7 69.049 125.854C69.1533 126.008 69.1979 126.195 69.1743 126.38C69.1508 126.564 69.0608 126.734 68.9212 126.857C68.7815 126.98 68.6019 127.048 68.4158 127.048Z" fill="#9AA1B7"/>
<path d="M68.4158 131.635C68.3508 131.636 68.2861 131.628 68.2231 131.612C66.4105 131.162 64.5485 130.944 62.6812 130.962C60.8136 130.944 58.9513 131.162 57.1384 131.612C57.0412 131.637 56.9399 131.642 56.8405 131.628C56.741 131.614 56.6453 131.581 56.5588 131.53C56.4723 131.479 56.3966 131.411 56.3362 131.331C56.2758 131.251 56.2318 131.159 56.2067 131.062C56.1816 130.965 56.1759 130.864 56.1899 130.764C56.204 130.665 56.2374 130.569 56.2884 130.483C56.3395 130.396 56.407 130.32 56.4873 130.26C56.5675 130.2 56.6588 130.156 56.7561 130.131C58.6939 129.649 60.6846 129.415 62.6812 129.432C64.6782 129.415 66.6695 129.649 68.6077 130.131C68.7878 130.177 68.9447 130.288 69.049 130.442C69.1533 130.596 69.1979 130.783 69.1743 130.967C69.1508 131.152 69.0608 131.322 68.9212 131.445C68.7815 131.567 68.6019 131.635 68.4158 131.635Z" fill="#9AA1B7"/>
<path d="M68.4158 136.223C68.3509 136.223 68.2861 136.215 68.2231 136.199C66.4105 135.75 64.5485 135.532 62.6812 135.549C60.8136 135.532 58.9513 135.75 57.1384 136.199C56.942 136.25 56.7335 136.221 56.5588 136.118C56.3841 136.015 56.2574 135.846 56.2067 135.65C56.156 135.454 56.1854 135.245 56.2884 135.07C56.3915 134.896 56.5597 134.769 56.7561 134.718C58.6939 134.237 60.6846 134.003 62.6812 134.02C64.6782 134.002 66.6695 134.237 68.6077 134.718C68.7878 134.765 68.9447 134.876 69.049 135.03C69.1533 135.184 69.1979 135.371 69.1743 135.555C69.1508 135.74 69.0608 135.909 68.9212 136.032C68.7815 136.155 68.6019 136.223 68.4158 136.223Z" fill="#9AA1B7"/>
<path d="M68.4158 140.811C68.3508 140.811 68.2861 140.803 68.2231 140.787C66.4105 140.338 64.5485 140.12 62.6812 140.137C60.8136 140.12 58.9513 140.338 57.1384 140.787C57.0412 140.812 56.9399 140.818 56.8405 140.804C56.741 140.79 56.6453 140.756 56.5588 140.705C56.4723 140.654 56.3966 140.587 56.3362 140.506C56.2758 140.426 56.2318 140.335 56.2067 140.238C56.1816 140.14 56.1759 140.039 56.1899 139.94C56.204 139.84 56.2374 139.745 56.2884 139.658C56.3395 139.572 56.407 139.496 56.4873 139.435C56.5675 139.375 56.6588 139.331 56.7561 139.306C58.6939 138.825 60.6846 138.59 62.6812 138.608C64.6782 138.59 66.6695 138.825 68.6077 139.306C68.7878 139.353 68.9447 139.463 69.049 139.617C69.1533 139.772 69.1979 139.958 69.1743 140.143C69.1508 140.327 69.0608 140.497 68.9212 140.62C68.7815 140.743 68.6019 140.811 68.4158 140.811Z" fill="#9AA1B7"/>
<path d="M68.4158 145.398C68.3508 145.399 68.2861 145.39 68.2232 145.374C66.4105 144.925 64.5485 144.707 62.6812 144.725C60.8136 144.707 58.9513 144.925 57.1384 145.374C57.0404 145.402 56.9379 145.409 56.8369 145.397C56.7358 145.384 56.6383 145.352 56.55 145.301C56.4618 145.25 56.3845 145.182 56.3228 145.101C56.2611 145.02 56.2162 144.928 56.1908 144.829C56.1653 144.731 56.1598 144.628 56.1746 144.527C56.1893 144.426 56.224 144.33 56.2767 144.243C56.3294 144.155 56.3989 144.08 56.4812 144.02C56.5635 143.96 56.657 143.917 56.7561 143.894C58.6939 143.412 60.6846 143.178 62.6812 143.196C64.6782 143.178 66.6695 143.412 68.6078 143.894C68.7878 143.94 68.9447 144.051 69.049 144.205C69.1533 144.359 69.1979 144.546 69.1744 144.731C69.1508 144.915 69.0608 145.085 68.9212 145.208C68.7815 145.331 68.6019 145.398 68.4158 145.398Z" fill="#9AA1B7"/>
<path d="M68.4158 149.986C68.3508 149.986 68.2861 149.978 68.2232 149.962C66.4105 149.513 64.5485 149.295 62.6812 149.313C60.8136 149.295 58.9513 149.513 57.1384 149.962C57.0404 149.989 56.9379 149.997 56.8369 149.985C56.7358 149.972 56.6383 149.939 56.55 149.889C56.4618 149.838 56.3845 149.77 56.3228 149.689C56.2611 149.608 56.2162 149.516 56.1908 149.417C56.1653 149.318 56.1598 149.216 56.1746 149.115C56.1893 149.014 56.224 148.917 56.2767 148.83C56.3294 148.743 56.3989 148.667 56.4812 148.608C56.5635 148.548 56.657 148.505 56.7561 148.481C58.6939 148 60.6846 147.766 62.6812 147.783C64.6782 147.766 66.6695 148 68.6078 148.481C68.7878 148.528 68.9447 148.639 69.049 148.793C69.1533 148.947 69.1979 149.134 69.1744 149.318C69.1508 149.503 69.0608 149.673 68.9212 149.795C68.7815 149.918 68.6019 149.986 68.4158 149.986Z" fill="#9AA1B7"/>
<path d="M56.9465 154.574C56.7605 154.574 56.581 154.506 56.4415 154.383C56.302 154.26 56.2121 154.09 56.1887 153.906C56.1653 153.721 56.2099 153.534 56.3142 153.381C56.4185 153.227 56.5753 153.116 56.7553 153.069C58.6933 152.588 60.6844 152.353 62.6812 152.371C63.089 152.371 63.482 152.379 63.8602 152.396C63.9606 152.4 64.0592 152.424 64.1503 152.466C64.2414 152.508 64.3234 152.568 64.3914 152.642C64.4594 152.716 64.5122 152.802 64.5468 152.897C64.5813 152.991 64.5969 153.091 64.5927 153.192C64.5822 153.393 64.493 153.583 64.3441 153.72C64.1953 153.857 63.9988 153.93 63.7967 153.923C63.4366 153.909 63.0635 153.9 62.6812 153.9C60.8136 153.882 58.9513 154.1 57.1384 154.549C57.0757 154.566 57.0112 154.574 56.9465 154.574Z" fill="#9AA1B7"/>
<path d="M53.888 122.841V159.543C53.6218 159.682 53.3662 159.841 53.1234 160.017C52.8805 159.841 52.6249 159.682 52.3587 159.543V122.841C52.6249 122.98 52.8805 123.139 53.1234 123.315C53.3662 123.139 53.6218 122.98 53.888 122.841Z" fill="#D1D5E5"/>
</g>
<path d="M371.077 224.545C369.569 214.897 361.205 207.492 351.14 207.492C347.354 207.492 343.715 208.539 340.56 210.493C335.759 202.425 327.115 197.404 317.513 197.404C302.68 197.404 290.612 209.472 290.612 224.305C290.612 224.397 290.612 224.493 290.615 224.585C281.082 226.19 273.574 234.502 273.574 244.482C273.574 255.607 282.849 264.658 293.974 264.658H367.954C379.08 264.658 388.354 255.607 388.354 244.482C388.354 234.417 380.725 226.052 371.077 224.545Z" fill="url(#paint3_linear_24_251)"/>
<rect x="249.131" y="254.244" width="76.1172" height="76.1172" rx="14.272" fill="#CEF1D3"/>
<g clip-path="url(#clip1_24_251)">
<path d="M305.153 280.122C305.019 279.698 304.868 279.28 304.702 278.87C304.481 278.323 304.231 277.789 303.953 277.27C303.815 277.011 303.669 276.755 303.517 276.503C303.212 275.999 302.88 275.51 302.522 275.039C301.895 274.215 301.187 273.443 300.402 272.732C296.941 269.599 292.245 267.873 287.179 267.873C282.112 267.873 277.416 269.599 273.955 272.732C270.366 275.98 268.39 280.512 268.39 285.491C268.39 293.289 271.628 296.444 274.23 298.979C276.029 300.732 277.474 301.954 277.838 304.745H287.179H296.518C296.876 301.902 298.328 300.694 300.141 298.934C300.79 298.304 301.478 297.636 302.146 296.866C302.48 296.48 302.809 296.07 303.125 295.626C303.204 295.515 303.282 295.402 303.36 295.287C303.592 294.942 303.815 294.576 304.028 294.188C304.098 294.058 304.168 293.926 304.236 293.791C305.258 291.769 305.968 289.141 305.968 285.491C305.968 283.624 305.69 281.819 305.153 280.122Z" fill="#FEFEFC"/>
<path d="M289.275 294.09H285.082V305.55H289.275V294.09Z" fill="#49B86E"/>
<path d="M287.179 298.185L280.566 291.572C279.747 290.753 279.747 289.426 280.566 288.607C281.385 287.788 282.712 287.788 283.531 288.607L287.179 292.255L290.827 288.607C291.646 287.788 292.973 287.788 293.792 288.607C294.611 289.426 294.611 290.753 293.792 291.572L287.179 298.185Z" fill="#49B86E"/>
<path d="M277.003 302.456V307.982C277.003 309.601 278.315 310.914 279.935 310.914V313.778C279.935 315.398 281.248 316.711 282.867 316.711H291.49C293.11 316.711 294.423 315.398 294.423 313.778V310.914C296.042 310.914 297.355 309.601 297.355 307.982V302.456H277.003Z" fill="#2B7B57"/>
</g>
<rect x="24.2665" y="264.118" width="69.2333" height="69.2333" rx="12.9812" fill="#A3C6F5"/>
<path d="M74.3942 285.113C71.8026 284.987 69.2952 285.774 67.134 287.379C66.3762 287.945 65.4313 288.239 64.4021 288.239H53.3716C52.3424 288.239 51.3881 287.945 50.6397 287.379C48.4878 285.763 45.9805 284.976 43.3795 285.113C37.0924 285.417 31.9935 291.176 31.7596 298.225C31.6379 301.97 32.8448 305.505 35.1557 308.201C37.4666 310.886 40.5821 312.376 43.9128 312.376C47.2435 312.376 50.6397 310.729 52.9506 307.855C53.3154 307.393 53.83 307.131 54.3539 307.131H63.4198C63.9437 307.131 64.4583 307.393 64.8231 307.855C67.1247 310.729 70.4179 312.376 73.8609 312.376C77.3038 312.376 80.3071 310.897 82.618 308.201C84.9289 305.516 86.1358 301.97 86.0141 298.225C85.7802 291.176 80.6813 285.417 74.3942 285.113Z" fill="#076DF3"/>
<path d="M48.5994 296.641H45.7928V293.494C45.7928 292.917 45.3718 292.445 44.8573 292.445H42.9863C42.4717 292.445 42.0507 292.917 42.0507 293.494V296.641H39.2442C38.7296 296.641 38.3086 297.113 38.3086 297.69V299.788C38.3086 300.365 38.7296 300.837 39.2442 300.837H42.0507V303.983C42.0507 304.56 42.4717 305.032 42.9863 305.032H44.8573C45.3718 305.032 45.7928 304.56 45.7928 303.983V300.837H48.5994C49.1139 300.837 49.5349 300.365 49.5349 299.788V297.69C49.5349 297.113 49.1139 296.641 48.5994 296.641Z" fill="white"/>
<path d="M78.5381 300.836C79.5711 300.836 80.4085 299.897 80.4085 298.738C80.4085 297.58 79.5711 296.641 78.5381 296.641C77.5051 296.641 76.6676 297.58 76.6676 298.738C76.6676 299.897 77.5051 300.836 78.5381 300.836Z" fill="white"/>
<path d="M69.1822 300.836C70.2153 300.836 71.0527 299.897 71.0527 298.738C71.0527 297.58 70.2153 296.641 69.1822 296.641C68.1492 296.641 67.3118 297.58 67.3118 298.738C67.3118 299.897 68.1492 300.836 69.1822 300.836Z" fill="white"/>
<path d="M73.8602 295.591C74.8932 295.591 75.7306 294.652 75.7306 293.493C75.7306 292.335 74.8932 291.396 73.8602 291.396C72.8272 291.396 71.9897 292.335 71.9897 293.493C71.9897 294.652 72.8272 295.591 73.8602 295.591Z" fill="white"/>
<path d="M73.8602 306.08C74.8932 306.08 75.7306 305.142 75.7306 303.983C75.7306 302.825 74.8932 301.886 73.8602 301.886C72.8272 301.886 71.9897 302.825 71.9897 303.983C71.9897 305.142 72.8272 306.08 73.8602 306.08Z" fill="white"/>
<path d="M61.6964 294.543H56.0845C55.5701 294.543 55.1492 294.071 55.1492 293.494C55.1492 292.917 55.5701 292.445 56.0845 292.445H61.6964C62.2108 292.445 62.6317 292.917 62.6317 293.494C62.6317 294.071 62.2108 294.543 61.6964 294.543Z" fill="#282572"/>
<rect x="236.548" y="40.7285" width="99.9698" height="99.9698" rx="18.7443" fill="#CEA6E4"/>
<path d="M301.424 83.6228C304.983 86.6668 307.524 90.7283 308.704 95.2602C309.884 99.7922 309.646 104.577 308.024 108.97C306.401 113.363 303.472 117.153 299.629 119.83C295.787 122.507 291.216 123.942 286.533 123.942C281.85 123.942 277.279 122.507 273.437 119.83C269.594 117.153 266.665 113.363 265.042 108.97C263.42 104.577 263.182 99.7922 264.362 95.2602C265.542 90.7283 268.083 86.6668 271.642 83.6228H301.424Z" fill="#EEB54F"/>
<path d="M301.218 102.019C301.012 102.913 300.76 103.818 300.462 104.734L308.492 107.575C308.272 108.305 308.016 109.024 307.725 109.728L299.683 106.888C299.328 107.781 298.939 108.64 298.526 109.476C299.838 110.389 300.871 111.647 301.512 113.111C302.153 114.574 302.376 116.187 302.157 117.77C301.31 118.564 300.402 119.292 299.443 119.946C300.21 117.06 300.267 113.646 297.438 111.504C294.474 116.577 290.298 120.835 285.284 123.898C283.984 123.832 282.692 123.648 281.424 123.348C287.274 120.558 292.145 116.067 295.399 110.462C291.94 109.236 289.259 110.072 285.949 111.114C281.333 112.581 275.685 114.356 265.926 111.034C265.476 110.115 265.09 109.165 264.769 108.193C275.009 112.157 280.439 110.45 285.262 108.938C288.79 107.815 292.134 106.773 296.487 108.423C296.854 107.689 297.198 106.922 297.518 106.12L264.574 94.4706C264.792 93.7374 265.055 93.0043 265.342 92.3056L298.297 103.967C298.561 103.153 298.79 102.34 298.984 101.538C294.826 100.164 293.372 97.6436 291.585 94.5164C289.915 91.3677 287.758 88.5029 285.193 86.0283L286.785 84.3674C289.506 86.9963 291.795 90.0389 293.566 93.3823C295.239 96.3033 296.327 98.1819 299.42 99.2702C300.263 93.9637 299.543 88.5265 297.346 83.6228H299.878C301.921 88.7344 302.539 94.3047 301.665 99.7398C304.849 99.9345 307.209 98.3652 308.641 94.9975C308.952 96.1388 309.17 97.3033 309.294 98.4798C308.49 99.6108 307.421 100.528 306.181 101.151C304.941 101.774 303.568 102.084 302.18 102.054C301.871 102.054 301.55 102.042 301.218 102.019Z" fill="#BA7317"/>
<path d="M301.424 69.9457V83.6228C301.424 83.6228 297.988 87.2769 286.533 87.2769C275.078 87.2769 271.642 83.6228 271.642 83.6228V69.9457H301.424Z" fill="#1D2870"/>
<path d="M312.633 67.1942L287.008 73.4738C286.696 73.5505 286.37 73.5505 286.058 73.4738L260.433 67.1942C260.041 67.1202 259.688 66.9116 259.433 66.6046C259.179 66.2976 259.04 65.9114 259.04 65.5126C259.04 65.1139 259.179 64.7277 259.433 64.4207C259.688 64.1137 260.041 63.9051 260.433 63.8311L286.058 57.5515C286.37 57.4748 286.696 57.4748 287.008 57.5515L312.633 63.8311C313.025 63.9051 313.378 64.1137 313.633 64.4207C313.887 64.7277 314.026 65.1139 314.026 65.5126C314.026 65.9114 313.887 66.2976 313.633 66.6046C313.378 66.9116 313.025 67.1202 312.633 67.1942Z" fill="#16225E"/>
<path d="M308.297 79.2585C307.994 79.2585 307.702 79.1378 307.487 78.923C307.273 78.7082 307.152 78.4168 307.152 78.113V70.263C307.152 69.9838 307.05 69.7143 306.865 69.5051C306.68 69.2958 306.425 69.1613 306.148 69.1267L286.391 66.649C286.095 66.6049 285.828 66.4468 285.648 66.2085C285.467 65.9703 285.386 65.6707 285.423 65.3739C285.46 65.0771 285.612 64.8066 285.846 64.6202C286.08 64.4338 286.378 64.3463 286.675 64.3763L306.434 66.854C307.264 66.9593 308.027 67.3634 308.581 67.9909C309.135 68.6183 309.441 69.4261 309.443 70.263V78.113C309.443 78.4168 309.322 78.7082 309.107 78.923C308.893 79.1378 308.601 79.2585 308.297 79.2585Z" fill="#F4AB19"/>
<path d="M42.6585 255.931L44.6894 251.279C46.4969 247.14 49.7501 243.844 53.8081 242.043L59.3983 239.562C61.1756 238.773 61.1756 236.187 59.3983 235.398L53.9826 232.994C49.8202 231.147 46.5087 227.729 44.7322 223.449L42.6749 218.491C41.9115 216.652 39.3696 216.652 38.6062 218.491L36.5489 223.449C34.7724 227.729 31.4608 231.147 27.2984 232.994L21.8828 235.398C20.1054 236.187 20.1054 238.773 21.8828 239.562L27.473 242.043C31.531 243.844 34.7843 247.14 36.5917 251.279L38.6227 255.931C39.4034 257.719 41.8777 257.719 42.6585 255.931ZM62.9926 267.257L63.5637 265.948C64.582 263.614 66.4159 261.755 68.7041 260.739L70.4638 259.957C71.4155 259.534 71.4155 258.151 70.4638 257.728L68.8027 256.99C66.4555 255.947 64.5887 254.02 63.5878 251.607L63.0014 250.192C62.5925 249.206 61.2295 249.206 60.8206 250.192L60.2342 251.607C59.2336 254.02 57.3668 255.947 55.0196 256.99L53.3583 257.728C52.4067 258.151 52.4067 259.534 53.3583 259.957L55.1179 260.739C57.4063 261.755 59.2401 263.614 60.2583 265.948L60.8296 267.257C61.2476 268.215 62.5745 268.215 62.9926 267.257Z" fill="white"/>
<path d="M234.284 142.919L232.614 139.094C231.127 135.69 228.453 132.981 225.116 131.5L220.52 129.459C219.058 128.811 219.058 126.685 220.52 126.036L224.973 124.06C228.395 122.54 231.118 119.731 232.578 116.211L234.27 112.135C234.898 110.622 236.988 110.622 237.615 112.135L239.307 116.211C240.768 119.731 243.491 122.54 246.913 124.06L251.366 126.036C252.827 126.685 252.827 128.811 251.366 129.459L246.769 131.5C243.433 132.981 240.758 135.69 239.272 139.094L237.602 142.919C236.96 144.389 234.925 144.389 234.284 142.919Z" fill="white"/>
<defs>
<filter id="filter0_f_24_251" x="-60.1077" y="54.6428" width="502.736" height="444.469" filterUnits="userSpaceOnUse" color-interpolation-filters="sRGB">
<feFlood flood-opacity="0" result="BackgroundImageFix"/>
<feBlend mode="normal" in="SourceGraphic" in2="BackgroundImageFix" result="shape"/>
<feGaussianBlur stdDeviation="24.228" result="effect1_foregroundBlur_24_251"/>
</filter>
<filter id="filter1_f_24_251" x="-60.1077" y="54.6428" width="502.736" height="444.469" filterUnits="userSpaceOnUse" color-interpolation-filters="sRGB">
<feFlood flood-opacity="0" result="BackgroundImageFix"/>
<feBlend mode="normal" in="SourceGraphic" in2="BackgroundImageFix" result="shape"/>
<feGaussianBlur stdDeviation="24.228" result="effect1_foregroundBlur_24_251"/>
</filter>
<filter id="filter2_f_24_251" x="-60.1077" y="54.6428" width="502.736" height="444.469" filterUnits="userSpaceOnUse" color-interpolation-filters="sRGB">
<feFlood flood-opacity="0" result="BackgroundImageFix"/>
<feBlend mode="normal" in="SourceGraphic" in2="BackgroundImageFix" result="shape"/>
<feGaussianBlur stdDeviation="24.228" result="effect1_foregroundBlur_24_251"/>
</filter>
<filter id="filter3_f_24_251" x="-60.1073" y="54.6428" width="502.736" height="444.469" filterUnits="userSpaceOnUse" color-interpolation-filters="sRGB">
<feFlood flood-opacity="0" result="BackgroundImageFix"/>
<feBlend mode="normal" in="SourceGraphic" in2="BackgroundImageFix" result="shape"/>
<feGaussianBlur stdDeviation="24.228" result="effect1_foregroundBlur_24_251"/>
</filter>
<linearGradient id="paint0_linear_24_251" x1="127.38" y1="288.084" x2="219.838" y2="450.026" gradientUnits="userSpaceOnUse">
<stop stop-color="#FF984C" stop-opacity="0"/>
<stop offset="1" stop-color="#FF984C"/>
</linearGradient>
<linearGradient id="paint1_linear_24_251" x1="147.553" y1="72.9087" x2="238.33" y2="216.919" gradientUnits="userSpaceOnUse">
<stop stop-color="white"/>
<stop offset="1" stop-color="white" stop-opacity="0"/>
</linearGradient>
<linearGradient id="paint2_linear_24_251" x1="16.2477" y1="404.771" x2="124.238" y2="216.372" gradientUnits="userSpaceOnUse">
<stop stop-color="#E98FF2"/>
<stop offset="1" stop-color="#D1B1F4" stop-opacity="0"/>
</linearGradient>
<linearGradient id="paint3_linear_24_251" x1="330.964" y1="197.404" x2="330.964" y2="264.658" gradientUnits="userSpaceOnUse">
<stop stop-color="#EFC7DC"/>
<stop offset="1" stop-color="white"/>
</linearGradient>
<clipPath id="clip0_24_251">
<rect width="45.8774" height="45.8774" fill="white" transform="translate(30.1847 120.257)"/>
</clipPath>
<clipPath id="clip1_24_251">
<rect width="48.8373" height="48.8373" fill="white" transform="translate(262.76 267.873)"/>
</clipPath>
</defs>
</svg>
