<svg width="18" height="18" viewBox="0 0 18 18" fill="none" xmlns="http://www.w3.org/2000/svg">
<path d="M2.20814 17.5C1.70297 17.5 1.27539 17.325 0.925391 16.975C0.575391 16.625 0.400391 16.1974 0.400391 15.6923V2.30775C0.400391 1.80258 0.575391 1.375 0.925391 1.025C1.27539 0.675 1.70297 0.5 2.20814 0.5H15.5926C16.0978 0.5 16.5254 0.675 16.8754 1.025C17.2254 1.375 17.4004 1.80258 17.4004 2.30775V15.6923C17.4004 16.1974 17.2254 16.625 16.8754 16.975C16.5254 17.325 16.0978 17.5 15.5926 17.5H2.20814ZM2.20814 16H15.5926C15.6696 16 15.7401 15.9679 15.8041 15.9038C15.8683 15.8398 15.9004 15.7692 15.9004 15.6923V2.30775C15.9004 2.23075 15.8683 2.16025 15.8041 2.09625C15.7401 2.03208 15.6696 2 15.5926 2H2.20814C2.13114 2 2.06064 2.03208 1.99664 2.09625C1.93247 2.16025 1.90039 2.23075 1.90039 2.30775V15.6923C1.90039 15.7692 1.93247 15.8398 1.99664 15.9038C2.06064 15.9679 2.13114 16 2.20814 16ZM4.90039 13.75H9.90039C10.1132 13.75 10.2914 13.6782 10.4349 13.5345C10.5786 13.391 10.6504 13.2128 10.6504 13C10.6504 12.7872 10.5786 12.609 10.4349 12.4655C10.2914 12.3218 10.1132 12.25 9.90039 12.25H4.90039C4.68756 12.25 4.50939 12.3218 4.36589 12.4655C4.22222 12.609 4.15039 12.7872 4.15039 13C4.15039 13.2128 4.22222 13.391 4.36589 13.5345C4.50939 13.6782 4.68756 13.75 4.90039 13.75ZM4.90039 9.75H12.9004C13.1132 9.75 13.2914 9.67817 13.4349 9.5345C13.5786 9.391 13.6504 9.21283 13.6504 9C13.6504 8.78717 13.5786 8.609 13.4349 8.4655C13.2914 8.32183 13.1132 8.25 12.9004 8.25H4.90039C4.68756 8.25 4.50939 8.32183 4.36589 8.4655C4.22222 8.609 4.15039 8.78717 4.15039 9C4.15039 9.21283 4.22222 9.391 4.36589 9.5345C4.50939 9.67817 4.68756 9.75 4.90039 9.75ZM4.90039 5.75H12.9004C13.1132 5.75 13.2914 5.67817 13.4349 5.5345C13.5786 5.391 13.6504 5.21283 13.6504 5C13.6504 4.78717 13.5786 4.609 13.4349 4.4655C13.2914 4.32183 13.1132 4.25 12.9004 4.25H4.90039C4.68756 4.25 4.50939 4.32183 4.36589 4.4655C4.22222 4.609 4.15039 4.78717 4.15039 5C4.15039 5.21283 4.22222 5.391 4.36589 5.5345C4.50939 5.67817 4.68756 5.75 4.90039 5.75Z" fill="#1C1B1F"/>
</svg>
