<svg width="20" height="20" viewBox="0 0 20 20" fill="none" xmlns="http://www.w3.org/2000/svg">
<path d="M15.5 0C17.9853 0 20 2.01472 20 4.5C20 5.85621 19.4001 7.07229 18.4511 7.89732C18.8061 8.8644 19 9.9096 19 11C19 15.9706 14.9706 20 10 20C5.02944 20 1 15.9706 1 11C1 9.9096 1.19392 8.8644 1.54916 7.8972C0.59995 7.07229 0 5.85621 0 4.5C0 2.01472 2.01472 0 4.5 0C6.12553 0 7.54976 0.86189 8.3406 2.15362C8.8774 2.05251 9.4326 2 10 2C10.5674 2 11.1226 2.05251 11.6609 2.15294C12.4502 0.86189 13.8745 0 15.5 0ZM8 11H6C6 13.2091 7.79086 15 10 15C12.2091 15 14 13.2091 14 11H12C12 12.1046 11.1046 13 10 13C8.8954 13 8 12.1046 8 11Z" fill="#EE7B30"/>
</svg>
