<svg width="62" height="41" viewBox="0 0 62 41" fill="none" xmlns="http://www.w3.org/2000/svg">
<path d="M50.4641 17.1602V31.1952C50.4641 37.0554 40.2269 40.2384 30.569 40.2384C20.9111 40.2384 10.6738 37.0554 10.6738 31.1952V17.1602C10.6738 16.1834 11.4694 15.3516 12.4825 15.3516H48.6555C49.6686 15.3516 50.4641 16.1834 50.4641 17.1602Z" fill="#B78DFF"/>
<path d="M50.4645 17.1602V31.1952C50.4645 37.0554 40.2272 40.2384 30.5693 40.2384V15.3516H48.6558C49.669 15.3516 50.4645 16.1834 50.4645 17.1602Z" fill="#B78DFF"/>
<path d="M61.4372 13.1091C61.4372 13.8688 60.9671 14.556 60.2794 14.8089L31.2205 25.6609C31.0038 25.7334 30.7867 25.7697 30.5695 25.7697C30.3524 25.7697 30.1353 25.7334 29.9186 25.6609L0.859619 14.8089V11.4088L29.9186 0.556878C30.1353 0.484815 30.3524 0.448547 30.5695 0.448547C30.7867 0.448547 31.0038 0.484815 31.2205 0.556878L60.2794 11.4088C60.9671 11.6622 61.4372 12.3494 61.4372 13.1091Z" fill="#B78DFF"/>
<path d="M61.437 13.1091C61.437 13.8688 60.9669 14.556 60.2792 14.8089L31.2203 25.6609C31.0036 25.7334 30.7865 25.7697 30.5693 25.7697V0.448547C30.7865 0.448547 31.0036 0.484815 31.2203 0.556878L60.2792 11.4088C60.9669 11.6622 61.437 12.3494 61.437 13.1091Z" fill="#B78DFF"/>
<path d="M2.11255 3.23291L13.6476 6.83761L24.8222 2.87244" stroke="#2F2F52" stroke-width="1.44188" stroke-linecap="square"/>
</svg>
