<svg width="14" height="14" viewBox="0 0 14 14" fill="none" xmlns="http://www.w3.org/2000/svg">
<path d="M10.5 1.4H13.3C13.4856 1.4 13.6637 1.47375 13.795 1.60502C13.9262 1.7363 14 1.91435 14 2.1V13.3C14 13.4856 13.9262 13.6637 13.795 13.795C13.6637 13.9262 13.4856 14 13.3 14H0.699999C0.514348 14 0.3363 13.9262 0.205025 13.795C0.0737497 13.6637 0 13.4856 0 13.3V2.1C0 1.91435 0.0737497 1.7363 0.205025 1.60502C0.3363 1.47375 0.514348 1.4 0.699999 1.4H3.5V0H4.9V1.4H9.09999V0H10.5V1.4ZM9.09999 2.8H4.9V4.2H3.5V2.8H1.4V5.6H12.6V2.8H10.5V4.2H9.09999V2.8ZM12.6 6.99999H1.4V12.6H12.6V6.99999Z" fill="#333333"/>
</svg>
