<svg width="21" height="20" viewBox="0 0 21 20" fill="none" xmlns="http://www.w3.org/2000/svg">
<path d="M10.3003 0.150391C15.7403 0.150391 20.1499 4.55999 20.1499 10C20.1499 15.44 15.7403 19.8496 10.3003 19.8496C4.86029 19.8496 0.450684 15.44 0.450684 10C0.450684 4.55999 4.86029 0.150391 10.3003 0.150391ZM8.18115 11.0088C8.33296 13.4704 9.03665 15.7838 10.1694 17.8252L10.3003 18.0615L10.4312 17.8252C11.5639 15.7838 12.2676 13.4704 12.4194 11.0088L12.4292 10.8496H8.17139L8.18115 11.0088ZM2.21338 11.0186C2.61697 14.255 4.91754 16.9021 7.96729 17.8115L8.28955 17.9072L8.146 17.6035C7.19155 15.5793 6.60602 13.3465 6.47705 10.9922L6.46924 10.8496H2.19189L2.21338 11.0186ZM14.1235 10.9922C13.9946 13.3465 13.409 15.5793 12.4546 17.6035L12.311 17.9072L12.6333 17.8115C15.683 16.9021 17.9836 14.255 18.3872 11.0186L18.4087 10.8496H14.1313L14.1235 10.9922ZM7.96729 2.18848C4.91755 3.098 2.61697 5.74498 2.21338 8.98145L2.19189 9.15039H6.46924L6.47705 9.00781C6.60602 6.65342 7.19155 4.42073 8.146 2.39648L8.28955 2.09277L7.96729 2.18848ZM10.1694 2.1748C9.03665 4.21613 8.33296 6.5296 8.18115 8.99121L8.17139 9.15039H12.4292L12.4194 8.99121C12.2676 6.5296 11.5639 4.21613 10.4312 2.1748L10.3003 1.93848L10.1694 2.1748ZM12.4546 2.39648C13.409 4.42073 13.9946 6.65342 14.1235 9.00781L14.1313 9.15039H18.4087L18.3872 8.98145C17.9836 5.74498 15.683 3.098 12.6333 2.18848L12.311 2.09277L12.4546 2.39648Z" fill="#0D0D0D" stroke="white" stroke-width="0.3"/>
</svg>
