<svg width="16" height="14" viewBox="0 0 16 14" fill="none" xmlns="http://www.w3.org/2000/svg">
<path d="M2.66667 6.2222L0 4.66667L8 0L16 4.66667V10.3333H14.6667V5.44447L13.3333 6.2222V10.6742L13.1849 10.8576C11.9638 12.3666 10.0945 13.3333 8 13.3333C5.90545 13.3333 4.03619 12.3666 2.81509 10.8576L2.66667 10.6742V6.2222ZM4 7V10.1945C4.97814 11.3027 6.40741 12 8 12C9.5926 12 11.0219 11.3027 12 10.1945V7L8 9.33333L4 7ZM2.64618 4.66667L8 7.78973L13.3538 4.66667L8 1.54361L2.64618 4.66667Z" fill="#333333"/>
</svg>
