<svg width="19" height="20" viewBox="0 0 19 20" fill="none" xmlns="http://www.w3.org/2000/svg">
<path d="M8.10059 0C12.1681 0 15.5266 3.03562 16.0343 6.96494L18.2848 10.5037C18.433 10.7367 18.4031 11.0847 18.0599 11.2317L16.1006 12.071V15C16.1006 16.1046 15.2052 17 14.1006 17H12.1016L12.1006 20H3.10059L3.10084 16.3061C3.10092 15.1252 2.6641 14.0087 1.85609 13.0011C0.757656 11.6313 0.100586 9.8924 0.100586 8C0.100586 3.58172 3.68231 0 8.10059 0ZM8.10059 5C7.54829 5 7.10059 5.44772 7.10059 6V6.999L6.10059 7C5.54831 7 5.10059 7.44772 5.10059 8C5.10059 8.5523 5.54831 9 6.10059 9L7.10059 8.999V10C7.10059 10.5523 7.54829 11 8.10059 11C8.65289 11 9.10059 10.5523 9.10059 10V9H10.1006C10.6529 9 11.1006 8.5523 11.1006 8C11.1006 7.44772 10.6529 7 10.1006 7H9.10059V6C9.10059 5.44772 8.65289 5 8.10059 5Z" fill="#FAAD61"/>
</svg>
