<svg width="19" height="20" viewBox="0 0 19 20" fill="none" xmlns="http://www.w3.org/2000/svg">
<path d="M8.1001 0.150391C12.0912 0.150391 15.3871 3.12888 15.8853 6.98438L15.8892 7.01758L15.9067 7.0459L18.1577 10.584C18.2122 10.6696 18.232 10.7739 18.2104 10.8652C18.19 10.9515 18.1301 11.0382 18.0005 11.0938L16.0415 11.9336L15.9497 11.9717V15C15.9497 16.0218 15.1219 16.8496 14.1001 16.8496H11.9507V17L11.9497 19.8496H3.25049V16.3057C3.25046 15.0856 2.79792 13.937 1.97217 12.9072C0.894425 11.5631 0.250488 9.85695 0.250488 8C0.250488 3.66456 3.76466 0.150391 8.1001 0.150391ZM8.1001 1.84961C4.70354 1.84961 1.94971 4.60345 1.94971 8C1.94971 9.41926 2.43052 10.7603 3.29932 11.8438C4.37425 13.1843 4.95079 14.7056 4.95068 16.3066V18.1504H10.2505V18L10.2515 15.1504H14.2505V10.8496L15.7085 10.2256L15.8706 10.1562L15.7769 10.0078L14.2515 7.61035L14.1987 7.20215C13.8055 4.1577 11.1999 1.84961 8.1001 1.84961ZM8.1001 5.15039C8.56955 5.15039 8.94971 5.53056 8.94971 6V7.15039H10.1001C10.5696 7.15039 10.9497 7.53056 10.9497 8C10.9497 8.46946 10.5696 8.84961 10.1001 8.84961H8.94971V10C8.94971 10.4695 8.56955 10.8496 8.1001 10.8496C7.63064 10.8496 7.25049 10.4695 7.25049 10V8.84863H7.1001L6.1001 8.84961L6.01318 8.8457C5.58457 8.80218 5.25049 8.44011 5.25049 8C5.25049 7.53056 5.63066 7.15039 6.1001 7.15039L7.1001 7.14941L7.25049 7.14844V6C7.25049 5.53056 7.63064 5.15039 8.1001 5.15039Z" fill="#0D0D0D" stroke="white" stroke-width="0.3"/>
</svg>
