<svg width="17" height="19" viewBox="0 0 17 19" fill="none" xmlns="http://www.w3.org/2000/svg">
<path d="M2.2002 16.5833H5.8253V11.1249C5.8253 10.8476 5.9191 10.615 6.1067 10.4273C6.29447 10.2397 6.52703 10.1459 6.80436 10.1459H10.596C10.8734 10.1459 11.1059 10.2397 11.2937 10.4273C11.4813 10.615 11.5751 10.8476 11.5751 11.1249V16.5833H15.2002V6.99988C15.2002 6.94445 15.188 6.89416 15.1636 6.84902C15.1394 6.80388 15.1065 6.76389 15.0648 6.72904L8.89818 2.09373C8.84256 2.04516 8.77657 2.02087 8.7002 2.02087C8.62382 2.02087 8.55783 2.04516 8.50222 2.09373L2.33561 6.72904C2.2939 6.76389 2.26095 6.80388 2.23676 6.84902C2.21238 6.89416 2.2002 6.94445 2.2002 6.99988V16.5833ZM0.575195 16.5833V6.99988C0.575195 6.68986 0.644528 6.39619 0.783195 6.11885C0.922042 5.84134 1.11379 5.61285 1.35845 5.43337L7.52532 0.7875C7.86747 0.526416 8.25856 0.395874 8.69857 0.395874C9.13859 0.395874 9.53075 0.526416 9.87507 0.7875L16.0419 5.43337C16.2866 5.61285 16.4783 5.84134 16.6172 6.11885C16.7559 6.39619 16.8252 6.68986 16.8252 6.99988V16.5833C16.8252 17.0264 16.6651 17.408 16.345 17.7281C16.0249 18.0483 15.6433 18.2083 15.2002 18.2083H10.9294C10.6519 18.2083 10.4194 18.1144 10.2318 17.9266C10.044 17.7391 9.95009 17.5065 9.95009 17.229V11.7709H7.4503V17.229C7.4503 17.5065 7.35641 17.7391 7.16863 17.9266C6.98104 18.1144 6.74848 18.2083 6.47097 18.2083H2.2002C1.75711 18.2083 1.37551 18.0483 1.05538 17.7281C0.735258 17.408 0.575195 17.0264 0.575195 16.5833Z" fill="#0D0D0D"/>
</svg>
