<svg width="17" height="18" viewBox="0 0 17 18" fill="none" xmlns="http://www.w3.org/2000/svg">
<path d="M0.825195 16V7C0.825195 6.68333 0.896029 6.38333 1.0377 6.1C1.17936 5.81667 1.3752 5.58333 1.6252 5.4L7.6252 0.9C7.9752 0.633333 8.3752 0.5 8.8252 0.5C9.2752 0.5 9.67519 0.633333 10.0252 0.9L16.0252 5.4C16.2752 5.58333 16.471 5.81667 16.6127 6.1C16.7544 6.38333 16.8252 6.68333 16.8252 7V16C16.8252 16.55 16.6294 17.0208 16.2377 17.4125C15.846 17.8042 15.3752 18 14.8252 18H11.8252C11.5419 18 11.3044 17.9042 11.1127 17.7125C10.921 17.5208 10.8252 17.2833 10.8252 17V12C10.8252 11.7167 10.7294 11.4792 10.5377 11.2875C10.346 11.0958 10.1085 11 9.8252 11H7.8252C7.54186 11 7.30436 11.0958 7.1127 11.2875C6.92103 11.4792 6.8252 11.7167 6.8252 12V17C6.8252 17.2833 6.72936 17.5208 6.5377 17.7125C6.34603 17.9042 6.10853 18 5.8252 18H2.8252C2.2752 18 1.80436 17.8042 1.4127 17.4125C1.02103 17.0208 0.825195 16.55 0.825195 16Z" fill="#FAAD61"/>
</svg>
