<svg width="16" height="11" viewBox="0 0 16 11" fill="none" xmlns="http://www.w3.org/2000/svg">
<path d="M0.649805 10.8684C0.550638 10.8684 0.467471 10.8347 0.400305 10.7674C0.333305 10.7002 0.299805 10.6169 0.299805 10.5174C0.299805 10.418 0.333305 10.335 0.400305 10.2684C0.467471 10.2017 0.550638 10.1684 0.649805 10.1684H15.3498C15.449 10.1684 15.5321 10.202 15.5991 10.2694C15.6662 10.3365 15.6998 10.4199 15.6998 10.5194C15.6998 10.6187 15.6662 10.7017 15.5991 10.7684C15.5321 10.835 15.449 10.8684 15.3498 10.8684H0.649805ZM0.649805 6.16836C0.550638 6.16836 0.467471 6.13469 0.400305 6.06736C0.333305 6.00019 0.299805 5.91686 0.299805 5.81736C0.299805 5.71802 0.333305 5.63502 0.400305 5.56836C0.467471 5.50169 0.550638 5.46836 0.649805 5.46836H15.3498C15.449 5.46836 15.5321 5.50202 15.5991 5.56936C15.6662 5.63652 15.6998 5.71986 15.6998 5.81936C15.6998 5.91869 15.6662 6.00169 15.5991 6.06836C15.5321 6.13502 15.449 6.16836 15.3498 6.16836H0.649805ZM0.649805 1.46836C0.550638 1.46836 0.467471 1.43469 0.400305 1.36736C0.333305 1.30019 0.299805 1.21686 0.299805 1.11736C0.299805 1.01802 0.333305 0.935023 0.400305 0.868356C0.467471 0.80169 0.550638 0.768356 0.649805 0.768356H15.3498C15.449 0.768356 15.5321 0.802022 15.5991 0.869356C15.6662 0.936522 15.6998 1.01986 15.6998 1.11936C15.6998 1.21869 15.6662 1.30169 15.5991 1.36836C15.5321 1.43502 15.449 1.46836 15.3498 1.46836H0.649805Z" fill="#1C1B1F"/>
</svg>
