<svg width="18" height="22" viewBox="0 0 18 22" fill="none" xmlns="http://www.w3.org/2000/svg">
<path d="M8.94511 2C7.28821 2 5.94507 3.34315 5.94507 5V9C5.94507 10.6569 7.28821 12 8.94511 12C10.6019 12 11.9451 10.6569 11.9451 9V5C11.9451 3.34315 10.6019 2 8.94511 2ZM8.94511 0C11.7065 0 13.9451 2.23858 13.9451 5V9C13.9451 11.7614 11.7065 14 8.94511 14C6.18364 14 3.94507 11.7614 3.94507 9V5C3.94507 2.23858 6.18364 0 8.94511 0ZM0 10H2.01596C2.50119 13.3923 5.4186 16 8.94511 16C12.4715 16 15.3889 13.3923 15.8742 10H17.8901C17.429 14.1716 14.1167 17.4839 9.94511 17.9451V22H7.94511V17.9451C3.77345 17.4839 0.46115 14.1716 0 10Z" fill="#3B3839"/>
</svg>
