<svg width="19" height="20" viewBox="0 0 19 20" fill="none" xmlns="http://www.w3.org/2000/svg">
<path d="M10.25 9.25H17.4693C17.2769 7.3205 16.508 5.68142 15.1625 4.33275C13.817 2.98392 12.1795 2.21658 10.25 2.03075V9.25ZM8.75 17.9693V2.03075C6.6885 2.21658 4.96475 3.07008 3.57875 4.59125C2.19292 6.11242 1.5 7.91533 1.5 10C1.5 12.0847 2.19292 13.8876 3.57875 15.4087C4.96475 16.9299 6.6885 17.7834 8.75 17.9693ZM10.25 17.9693C12.1795 17.7936 13.8196 17.0288 15.1702 15.675C16.5209 14.3212 17.2873 12.6795 17.4693 10.75H10.25V17.9693ZM9.50175 19.5C8.18775 19.5 6.95267 19.2507 5.7965 18.752C4.64033 18.2533 3.63467 17.5766 2.7795 16.7218C1.92433 15.8669 1.24725 14.8617 0.74825 13.706C0.249417 12.5503 0 11.3156 0 10.0017C0 8.68775 0.249333 7.45267 0.748 6.2965C1.24667 5.14033 1.92342 4.13467 2.77825 3.2795C3.63308 2.42433 4.63833 1.74725 5.794 1.24825C6.94967 0.749417 8.18442 0.5 9.49825 0.5C10.8123 0.5 12.0446 0.749667 13.1953 1.249C14.3459 1.74833 15.3513 2.42817 16.2115 3.2885C17.0718 4.14867 17.7517 5.15375 18.251 6.30375C18.7503 7.45358 19 8.68667 19 10.003C19 11.3035 18.7507 12.5313 18.252 13.6863C17.7533 14.8411 17.0766 15.8496 16.2218 16.7118C15.3669 17.5739 14.3617 18.2542 13.206 18.7525C12.0503 19.2508 10.8156 19.5 9.50175 19.5Z" fill="#0D0D0D"/>
</svg>
