<svg width="22" height="16" viewBox="0 0 22 16" fill="none" xmlns="http://www.w3.org/2000/svg">
<path d="M10.1858 9.06444L0.791795 15.3271C0.557766 15.4831 0.241557 15.4199 0.0855305 15.1859C0.0297631 15.1022 0 15.0039 0 14.9034V0.509291C0 0.22801 0.22802 0 0.509291 0C0.609836 0 0.708139 0.0297631 0.791795 0.0855305L10.1858 6.34819V0.509291C10.1858 0.22801 10.4139 0 10.6951 0C10.7957 0 10.8939 0.0297631 10.9777 0.0855305L21.7732 7.28253C22.0072 7.43858 22.0705 7.75485 21.9144 7.98882C21.8771 8.04474 21.8291 8.09281 21.7732 8.13009L10.9777 15.3271C10.7436 15.4831 10.4274 15.4199 10.2714 15.1859C10.2156 15.1022 10.1858 15.0039 10.1858 14.9034V9.06444Z" fill="#49A55D"/>
</svg>
