<svg width="17" height="18" viewBox="0 0 17 18" fill="none" xmlns="http://www.w3.org/2000/svg">
<path d="M1.64212 16.3579H5.30541V10.8421C5.30541 10.5618 5.40019 10.3268 5.58976 10.1371C5.77952 9.94749 6.01453 9.8527 6.29478 9.8527H10.1264C10.4066 9.8527 10.6416 9.94749 10.8314 10.1371C11.021 10.3268 11.1158 10.5618 11.1158 10.8421V16.3579H14.779V6.67356C14.779 6.61755 14.7667 6.56673 14.7421 6.52112C14.7177 6.47551 14.6844 6.43509 14.6422 6.39988L8.41065 1.71574C8.35445 1.66666 8.28776 1.64212 8.21058 1.64212C8.1334 1.64212 8.06672 1.66666 8.01052 1.71574L1.77896 6.39988C1.73681 6.43509 1.70351 6.47551 1.67906 6.52112C1.65443 6.56673 1.64212 6.61755 1.64212 6.67356V16.3579ZM0 16.3579V6.67356C0 6.36028 0.0700634 6.06352 0.210191 5.78326C0.3505 5.50282 0.54427 5.27192 0.7915 5.09056L7.02333 0.395751C7.36909 0.131917 7.76429 0 8.20894 0C8.65359 0 9.04989 0.131917 9.39783 0.395751L15.6297 5.09056C15.8769 5.27192 16.0707 5.50282 16.211 5.78326C16.3511 6.06352 16.4212 6.36028 16.4212 6.67356V16.3579C16.4212 16.8057 16.2594 17.1913 15.9359 17.5148C15.6124 17.8383 15.2268 18.0001 14.779 18.0001H10.4633C10.1829 18.0001 9.94785 17.9052 9.75828 17.7154C9.56852 17.5259 9.47365 17.2909 9.47365 17.0104V11.4948H6.94752V17.0104C6.94752 17.2909 6.85264 17.5259 6.66289 17.7154C6.47332 17.9052 6.23831 18.0001 5.95787 18.0001H1.64212C1.19437 18.0001 0.808742 17.8383 0.485245 17.5148C0.161748 17.1913 0 16.8057 0 16.3579Z" fill="#0D0D0D"/>
</svg>
