<svg width="64" height="32" viewBox="0 0 64 32" fill="none" xmlns="http://www.w3.org/2000/svg">
<path d="M31 6C35.0675 6 38.426 9.03562 38.9337 12.9649L41.1842 16.5037C41.3324 16.7367 41.3025 17.0847 40.9593 17.2317L39 18.071V21C39 22.1046 38.1046 23 37 23H35.001L35 26H26L26.0002 22.3061C26.0003 21.1252 25.5635 20.0087 24.7555 19.0011C23.6571 17.6313 23 15.8924 23 14C23 9.58172 26.5817 6 31 6ZM31 11C30.4477 11 30 11.4477 30 12V12.999L29 13C28.4477 13 28 13.4477 28 14C28 14.5523 28.4477 15 29 15L30 14.999V16C30 16.5523 30.4477 17 31 17C31.5523 17 32 16.5523 32 16V15H33C33.5523 15 34 14.5523 34 14C34 13.4477 33.5523 13 33 13H32V12C32 11.4477 31.5523 11 31 11Z" fill="#FAAD61"/>
</svg>
